<?xml version="1.0" standalone="no"?>
<!DOCTYPE svg PUBLIC "-//W3C//DTD SVG 20010904//EN"
 "http://www.w3.org/TR/2001/REC-SVG-20010904/DTD/svg10.dtd">
<svg version="1.0" xmlns="http://www.w3.org/2000/svg"
 width="300.000000pt" height="300.000000pt" viewBox="0 0 300.000000 300.000000"
 preserveAspectRatio="xMidYMid meet">
<metadata>
Created by potrace 1.11, written by Peter Selinger 2001-2013
</metadata>
<g transform="translate(0.000000,300.000000) scale(0.100000,-0.100000)"
fill="#000000" stroke="none">
<path d="M253 2912 c-62 -17 -126 -68 -155 -126 -17 -31 -22 -59 -22 -116 0
-85 19 -132 96 -237 131 -178 223 -439 254 -724 15 -126 8 -418 -11 -516 -2
-11 -6 -38 -9 -58 -30 -189 -132 -441 -235 -580 -81 -110 -108 -181 -98 -265
21 -180 205 -274 377 -191 36 17 96 53 135 80 125 89 329 177 480 205 5 1 24
5 40 9 116 25 197 32 395 31 268 0 378 -15 570 -76 135 -43 240 -94 355 -173
120 -82 176 -105 253 -105 147 0 256 119 246 268 -5 68 -27 119 -96 218 -73
105 -130 215 -167 321 -42 122 -57 185 -83 338 -19 113 -15 524 6 586 3 8 7
32 10 54 3 22 12 64 20 93 8 28 11 52 8 52 -3 0 -1 5 6 12 7 7 12 20 12 29 0
22 77 215 104 259 12 19 27 46 34 60 7 15 35 55 61 90 27 36 57 90 69 120 68
184 -59 360 -253 352 -58 -2 -140 -40 -239 -111 -109 -77 -281 -157 -402 -186
-42 -10 -201 -44 -239 -50 -63 -11 -454 -14 -515 -4 -30 5 -73 11 -95 15 -79
11 -239 56 -329 91 -102 40 -151 66 -250 132 -114 76 -139 91 -179 102 -62 17
-98 17 -154 1z"/>
</g>
</svg>
